<svg width="20" height="20" viewBox="0 0 20 20" xmlns="http://www.w3.org/2000/svg">
    <path d="M16.718 15.581A8.742 8.742 0 0 0 4.965 2.841 8.744 8.744 0 0 0 1.25 10c0 2.041.72 4.017 2.032 5.581l-.013.012c.043.052.093.097.138.15.056.064.117.124.175.187.175.189.355.371.544.542.057.053.117.102.175.152.2.172.405.336.619.488.028.02.053.044.08.063v-.007a8.688 8.688 0 0 0 10 0v.007c.028-.02.052-.044.08-.062.213-.154.42-.317.62-.49.057-.05.117-.099.174-.15a8.77 8.77 0 0 0 .544-.544c.058-.064.118-.124.175-.189.045-.05.095-.096.139-.149l-.014-.009zM10 5.001a2.812 2.812 0 1 1 0 5.624A2.812 2.812 0 0 1 10 5zM5.004 15.58a3.122 3.122 0 0 1 3.12-3.08h3.75a3.122 3.122 0 0 1 3.122 3.081 7.462 7.462 0 0 1-9.992.001v.001z" />
</svg>
