<svg fill="none" width="40" height="41" viewBox="0 0 40 41" xmlns="http://www.w3.org/2000/svg">
<path d="m10.848 1.0442c-3.5306 2.2657-5.9171 6.2653-5.9171 10.836 0 4.5709 2.3866 8.5704 5.9763 10.836-6.0552 0-10.907-4.8467-10.907-10.836 0-2.8739 1.1429-5.6301 3.1773-7.6623s4.7937-3.1738 7.6708-3.1738z"/>
<path d="m14.97 15.9-2.288-1.4383-2.209 1.5368 0.6706-2.6007-2.1499-1.6353 2.6824-0.1773 0.8876-2.5416 1.0059 2.5022 2.6825 0.0591-2.071 1.7141 0.7889 2.581z"/>
<path d="m21.479 8.7871-2.9191-1.8323-2.8403 1.9702 0.8284-3.3494-2.7416-2.0884 3.4517-0.23643 1.144-3.2508 1.3215 3.2114 3.4122 0.0591-2.6627 2.2263 1.0059 3.2902z"/>
<path d="m33.669 3.9995 2.8205 2.8174-30.71 30.676-2.8205-2.8174 30.71-30.676z"/>
<path d="m33.531 23.702c0 2.8739-1.143 5.6301-3.1774 7.6623s-4.7937 3.1738-7.6708 3.1738c-2.4063 0-4.6351-0.7881-6.4299-2.1081l15.168-15.151c1.3215 1.7929 2.1105 4.0192 2.1105 6.4229z"/>
<path d="m33.392 31.346 2.2682-5.4575 4.3393 5.0043-6.6075 0.4532z"/>
<path d="m35.661 21.574-2.2485-5.4772 6.5878 0.4728-4.3393 5.0044z"/>
<path d="m24.852 36.666 5.4635-2.2657-0.4734 6.6002-4.9901-4.3345z"/>
<path d="m15.049 34.4 5.4635 2.2657-4.9901 4.3148-0.4734-6.5805z"/>
<defs>
<clipPath id="a">
<rect width="40" height="41" />
</clipPath>
</defs>
</svg>
